<svg width="40" height="40" viewBox="0 0 40 40" fill="none"  xmlns="http://www.w3.org/2000/svg">
<path d="M37.9661 15.3326H35.7657L35.0448 12.8517C34.8623 12.2259 34.4535 11.6873 33.8955 11.3371C33.3374 10.987 32.6684 10.8494 32.0144 10.9502L22.1455 12.4826C21.8288 12.5316 21.5275 12.65 21.2636 12.8289C20.9998 13.0078 20.7802 13.2428 20.6211 13.5164C20.462 13.79 20.3675 14.0953 20.3446 14.4097C20.3216 14.724 20.3708 15.0394 20.4885 15.3326H18.9831C18.8492 15.3326 18.7184 15.3716 18.607 15.4446L16.7439 16.6659H15.5933V17.9992H16.7439L18.607 19.2205C18.7184 19.2936 18.8492 19.3325 18.9831 19.3325H22.0921L23.7402 20.9532C23.7924 21.6264 24.0361 22.2717 24.4433 22.8153C24.8506 23.3589 25.405 23.779 26.0434 24.0276L27.1187 24.4506V29.8422L25.8344 32.368C25.7877 32.4606 25.7636 32.5627 25.764 32.6662H25.7628V39.9994H27.1187V33.3324H35.9322V39.999H37.2882V32.6657H37.2869C37.2874 32.5623 37.2633 32.4602 37.2166 32.3676L35.9322 29.8418V19.3325H37.9661C38.5056 19.3325 39.0229 19.1218 39.4043 18.7468C39.7858 18.3717 40 17.863 40 17.3326C40 16.8021 39.7858 16.2934 39.4043 15.9184C39.0229 15.5433 38.5056 15.3326 37.9661 15.3326ZM21.695 14.5613C21.6942 14.3774 21.7606 14.1994 21.8821 14.0595C22.0036 13.9197 22.1721 13.8274 22.357 13.7995L32.2258 12.2672C32.5528 12.2167 32.8874 12.2854 33.1665 12.4605C33.4455 12.6356 33.6499 12.905 33.7411 13.2179L34.3555 15.3326H30.7894L31.6659 14.4707L30.7071 13.5279L28.8718 15.3326H22.4793C22.2713 15.3324 22.072 15.251 21.9249 15.1064C21.7779 14.9619 21.6952 14.7658 21.695 14.5613ZM18.1714 17.3326L19.1883 16.6659H21.1588C20.9916 17.0922 20.9717 17.5607 21.102 17.9992H19.1883L18.1714 17.3326ZM27.5377 31.9991L28.2156 30.6658H34.8353L35.5133 31.9991H27.5377ZM34.5763 29.3324H28.4746V23.9992C28.4746 23.8659 28.434 23.7357 28.3581 23.6254C28.2821 23.5151 28.1742 23.4296 28.0484 23.3802L26.5471 22.7897C26.1145 22.6211 25.7437 22.3284 25.4828 21.9495C25.222 21.5707 25.0833 21.1234 25.0848 20.6659C25.0848 20.5783 25.0673 20.4916 25.0332 20.4107C24.9991 20.3299 24.9492 20.2564 24.8862 20.1944L22.5956 17.9421C22.4893 17.8375 22.4169 17.7043 22.3875 17.5593C22.3582 17.4143 22.3732 17.264 22.4307 17.1274C22.4883 16.9907 22.5857 16.874 22.7108 16.7918C22.8358 16.7097 22.9828 16.6659 23.1332 16.6659H23.3894C23.5073 16.6661 23.6237 16.6931 23.7293 16.7448L28.751 19.2138L30.7071 21.1373L31.6659 20.1944L30.7894 19.3325H34.5763V29.3324ZM29.3127 17.9992L26.6008 16.6659H35.9322V17.9992H29.3127ZM37.9661 17.9992H37.2882V16.6659H37.9661C38.146 16.6659 38.3184 16.7361 38.4455 16.8612C38.5727 16.9862 38.6441 17.1558 38.6441 17.3326C38.6441 17.5094 38.5727 17.6789 38.4455 17.804C38.3184 17.929 38.146 17.9992 37.9661 17.9992Z" fill="#F5961B"/>
<path d="M0 3.33365V37.3333C0 37.5101 0.0714283 37.6797 0.198572 37.8047C0.325715 37.9297 0.498158 38 0.677966 38H24.4068V36.6666H1.35593V4.00031H31.8644V9.33359H33.2203V3.33365C33.2203 3.15684 33.1489 2.98728 33.0218 2.86225C32.8946 2.73723 32.7222 2.66699 32.5424 2.66699H0.677966C0.498158 2.66699 0.325715 2.73723 0.198572 2.86225C0.0714283 2.98728 0 3.15684 0 3.33365Z" fill="#F5961B"/>
<path d="M13.522 12.7312C15.5016 12.3735 17.5447 12.6021 19.3921 13.3878L19.93 12.164C17.8018 11.2597 15.4456 11.0076 13.1693 11.4408C10.8931 11.874 8.8027 12.9723 7.17125 14.5921C5.5398 16.212 4.44319 18.2781 4.02472 20.5204C3.60625 22.7628 3.88537 25.0771 4.82562 27.1611C5.76587 29.245 7.32351 31.0015 9.29501 32.2012C11.2665 33.4009 13.5602 33.9879 15.8763 33.8856C18.1925 33.7832 20.4233 32.9962 22.2774 31.6275C24.1315 30.2587 25.5227 28.3718 26.269 26.2134L24.9847 25.7855C24.4469 27.3395 23.5286 28.7394 22.3106 29.8618C21.0926 30.9842 19.6123 31.7946 18.0005 32.2215L23.0114 27.2942L22.0526 26.3514L15.7432 32.5558C15.1336 32.5787 14.5232 32.548 13.9191 32.4641L18.3824 28.0753L17.4237 27.1328L12.3513 32.1206C11.8788 31.9779 11.4175 31.8014 10.9713 31.5923L15.4478 27.1897L14.489 26.247L9.74578 30.9117C9.36509 30.6638 9.00186 30.391 8.65858 30.095L12.5135 26.3044L11.5547 25.3615L7.69951 29.1524C7.39829 28.8151 7.12041 28.4583 6.86773 28.0844L11.274 23.7523L10.3154 22.8095L6.17316 26.8814C5.95988 26.4433 5.77979 25.9903 5.63434 25.526L10.0339 21.1995L9.0751 20.2567L5.2851 23.9838C5.21787 23.5149 5.18412 23.042 5.18409 22.5685C5.18409 22.442 5.18722 22.316 5.19197 22.1902L9.47265 17.981L8.51383 17.0381L5.52866 19.9735C6.02958 18.1473 7.04616 16.4979 8.46075 15.2163C9.87534 13.9346 11.6301 13.073 13.522 12.7312Z" fill="#F5961B"/>
<path d="M21.3548 9.83264C22.3671 9.83264 22.8183 8.9454 23.1478 8.29749C23.319 7.96066 23.5536 7.49934 23.7278 7.49934C23.9021 7.49934 24.1367 7.96066 24.3081 8.29749C24.6376 8.9454 25.0889 9.83264 26.1012 9.83264C27.1134 9.83264 27.5648 8.9454 27.8942 8.29749C28.0656 7.96066 28.3001 7.49934 28.4745 7.49934V6.16602C27.4623 6.16602 27.0109 7.05326 26.6815 7.70117C26.5101 8.038 26.2756 8.49932 26.1012 8.49932C25.9267 8.49932 25.6922 8.038 25.5208 7.70108C25.1914 7.05326 24.7401 6.16602 23.7278 6.16602C22.7156 6.16602 22.2645 7.05326 21.935 7.70117C21.7637 8.038 21.5291 8.49932 21.3548 8.49932C21.1805 8.49932 20.9461 8.038 20.7748 7.70117C20.4453 7.05334 19.9941 6.16602 18.9818 6.16602C17.9695 6.16602 17.5184 7.05326 17.189 7.70117C17.0178 8.038 16.7832 8.49932 16.6089 8.49932C16.4347 8.49932 16.2002 8.038 16.0289 7.70117C15.6995 7.05334 15.2483 6.16602 14.236 6.16602C13.2237 6.16602 12.7728 7.05326 12.4434 7.70117C12.2721 8.038 12.0375 8.49932 11.8634 8.49932C11.6892 8.49932 11.4547 8.038 11.2835 7.70125C10.9541 7.05334 10.503 6.16602 9.49081 6.16602C8.47861 6.16602 8.02768 7.05334 7.69835 7.70125C7.52708 8.038 7.29259 8.49932 7.11861 8.49932C6.94463 8.49932 6.70996 8.038 6.53861 7.70125C6.2092 7.05334 5.75793 6.16602 4.74573 6.16602V7.49934C4.91996 7.49934 5.15446 7.96066 5.32581 8.29749C5.65513 8.9454 6.10641 9.83264 7.11861 9.83264C8.13081 9.83264 8.58191 8.94532 8.91124 8.29741C9.08242 7.96058 9.31691 7.49934 9.4909 7.49934C9.66488 7.49934 9.89954 7.96066 10.0708 8.29741C10.4002 8.94532 10.8513 9.83264 11.8634 9.83264C12.8756 9.83264 13.3268 8.94532 13.6562 8.29741C13.8274 7.96058 14.062 7.49934 14.2361 7.49934C14.4101 7.49934 14.645 7.96066 14.8162 8.29749C15.1457 8.9454 15.5968 9.83264 16.609 9.83264C17.6212 9.83264 18.0725 8.9454 18.4019 8.29749C18.5732 7.96066 18.8078 7.49934 18.9819 7.49934C19.1561 7.49934 19.3908 7.96066 19.5621 8.29749C19.8915 8.9454 20.3426 9.83264 21.3548 9.83264Z" fill="#F5961B"/>
<path d="M24.4068 0H5.42371V1.33332H24.4068V0Z" fill="#F5961B"/>
<path d="M27.1186 0H25.7627V1.33332H27.1186V0Z" fill="#F5961B"/>
</svg>
